HIERARCHY
ROOT Hips
{
	OFFSET 0.150609 86.114761 -2.657847
	CHANNELS 6 Xposition Yposition Zposition Xrotation Yrotation Zrotation
	JOINT Chest
	{
		OFFSET -1.468286 13.260475 2.856249
		CHANNELS 3 Xrotation Yrotation Zrotation
		JOINT Chest2
		{
			OFFSET -6.880818 17.894043 9.566825
			CHANNELS 3 Xrotation Yrotation Zrotation
			JOINT Chest3
			{
				OFFSET -1.592995 14.204201 4.303849
				CHANNELS 3 Xrotation Yrotation Zrotation
				JOINT Neck
				{
					OFFSET -2.648234 16.378036 4.833529
					CHANNELS 3 Xrotation Yrotation Zrotation
					JOINT Head
					{
						OFFSET -1.591986 10.352081 0.357183
						CHANNELS 3 Xrotation Yrotation Zrotation
						End Site
						{
							OFFSET -1.561450 10.358795 0.291117
						}
					}
				}
				JOINT LeftCollar
				{
					OFFSET 1.417407 12.025681 7.428211
					CHANNELS 3 Xrotation Yrotation Zrotation
					JOINT LeftUpArm
					{
						OFFSET 15.149960 8.599426 -2.242302
						CHANNELS 3 Xrotation Yrotation Zrotation
						JOINT LeftLowArm
						{
							OFFSET 12.293867 29.045151 12.040272
							CHANNELS 3 Xrotation Yrotation Zrotation
							JOINT LeftHand
							{
								OFFSET -4.200666 29.700500 -1.086977
								CHANNELS 3 Xrotation Yrotation Zrotation
								End Site
								{
									OFFSET -0.918077 6.491226 -0.237572
								}
							}
						}
					}
				}
				JOINT RightCollar
				{
					OFFSET -6.705566 11.329453 5.337362
					CHANNELS 3 Xrotation Yrotation Zrotation
					JOINT RightUpArm
					{
						OFFSET -15.393963 -3.090225 -7.872284
						CHANNELS 3 Xrotation Yrotation Zrotation
						JOINT RightLowArm
						{
							OFFSET -19.628466 -20.309937 18.492292
							CHANNELS 3 Xrotation Yrotation Zrotation
							JOINT RightHand
							{
								OFFSET -18.428940 -4.205780 23.316093
								CHANNELS 3 Xrotation Yrotation Zrotation
								End Site
								{
									OFFSET -4.027840 -0.919235 5.095951
								}
							}
						}
					}
				}
			}
		}
	}
	JOINT LeftUpLeg
	{
		OFFSET 7.701546 -0.523811 6.389910
		CHANNELS 3 Xrotation Yrotation Zrotation
		JOINT LeftLowLeg
		{
			OFFSET -28.295084 -14.448372 35.137180
			CHANNELS 3 Xrotation Yrotation Zrotation
			JOINT LeftFoot
			{
				OFFSET 6.908897 -44.055199 -3.460369
				CHANNELS 3 Xrotation Yrotation Zrotation
				JOINT LeftToe
				{
					OFFSET -0.805254 -18.613621 14.575466
					CHANNELS 3 Xrotation Yrotation Zrotation
					End Site
					{
						OFFSET -6.356361 -5.678232 22.066113
					}
				}
			}
		}
	}
	JOINT RightUpLeg
	{
		OFFSET -7.701528 0.523613 -6.389955
		CHANNELS 3 Xrotation Yrotation Zrotation
		JOINT RightLowLeg
		{
			OFFSET -15.439735 -44.347687 -6.237688
			CHANNELS 3 Xrotation Yrotation Zrotation
			JOINT RightFoot
			{
				OFFSET 19.724554 -30.441984 -26.168819
				CHANNELS 3 Xrotation Yrotation Zrotation
				JOINT RightToe
				{
					OFFSET -15.084366 -18.209541 0.656528
					CHANNELS 3 Xrotation Yrotation Zrotation
					End Site
					{
						OFFSET -22.230185 -5.106567 6.268810
					}
				}
			}
		}
	}
}
MOTION
Frames: 13
Frame Time: 0.033333
0.102184 86.157768 -2.604043 0.021972 0.487128 0.214905 0.462341 0.108978 -0.009136 0.015184 -0.001321 0.011653 -0.187533 -0.085648 -0.002001 -0.428361 -0.150230 -0.028098 -0.000001 0.000003 -0.000000 -0.037678 0.098715 -0.159140 -0.262903 0.073463 0.240512 -0.933706 0.063655 -0.712147 -0.000000 -0.000001 0.000000 -0.019574 0.275153 0.154893 -0.429104 0.350069 -0.454081 0.286625 -0.885675 0.062005 0.000001 -0.000001 -0.000001 -0.079266 -0.195030 -0.421365 -0.004063 0.042757 0.212286 0.100176 -0.402537 -0.138723 -0.000000 0.000000 0.000000 0.007386 -0.000835 0.073762 -0.052380 -0.013682 0.065293 -0.177663 -0.084497 -0.411246 0.000000 0.000001 -0.000001 
0.143683 86.120384 -2.649321 0.000095 0.042039 0.039342 -0.010603 -0.007706 0.010144 -0.028062 0.009512 -0.027786 0.067101 0.019189 0.000417 -0.082046 -0.041770 -0.001216 0.000000 0.000001 -0.000001 0.007753 -0.007957 -0.042421 -0.062212 0.027452 0.059461 -0.133650 0.028160 -0.099458 -0.000000 -0.000000 0.000000 0.003651 0.081396 0.012065 -0.040018 0.037955 -0.032568 0.059705 -0.105987 -0.026629 0.000001 0.000002 0.000002 -0.023440 -0.021495 -0.068469 -0.057614 0.052988 0.045455 -0.023477 -0.074209 -0.066944 -0.000001 -0.000001 -0.000001 0.051978 -0.016634 -0.005638 0.040692 0.005857 -0.036896 -0.043701 0.012773 -0.059330 -0.000001 0.000000 -0.000000 
0.185403 86.086563 -2.700675 -0.000952 -0.211239 -0.197696 0.053314 0.038720 -0.050949 0.141078 -0.047622 0.139667 -0.337148 -0.096409 -0.002442 0.412134 0.209895 0.005192 -0.000000 0.000001 0.000001 -0.039016 0.039861 0.213186 0.312106 -0.138903 -0.298289 0.672231 -0.137980 0.500673 -0.000000 -0.000000 0.000001 -0.018599 -0.408931 -0.060681 0.201350 -0.190330 0.164064 -0.300727 0.532064 0.135478 -0.000002 0.000002 0.000001 0.117396 0.108440 0.343879 0.288818 -0.266925 -0.227565 0.116644 0.373268 0.335872 0.000000 0.000001 -0.000000 -0.261175 0.083471 0.028553 -0.204381 -0.029856 0.185311 0.219710 -0.063462 0.298203 -0.000000 0.000000 0.000001 
0.226178 86.055801 -2.755009 0.692731 -0.594520 -0.267679 -0.580049 -0.026566 -0.241749 -0.223917 -0.280709 0.073472 -0.104116 0.428757 0.270561 0.400848 0.206625 -0.104649 -0.000000 0.000003 -0.000000 -0.273100 0.262845 0.235288 0.794417 -0.742497 -0.393507 0.236836 -0.335263 0.924015 0.000000 0.000001 0.000001 -0.097795 -0.592624 -0.155345 0.127161 -0.183603 0.447993 -0.503756 0.470848 0.183376 -0.000001 -0.000003 -0.000002 -0.620714 0.420353 0.462907 0.263029 -0.286351 -0.315013 0.157533 0.165486 0.335111 -0.000000 0.000001 -0.000000 -0.988719 0.183924 0.105452 -0.169593 0.028795 -0.013568 0.302832 0.109025 0.473608 -0.000001 0.000000 -0.000000 
0.262934 86.028656 -2.803926 0.425690 -0.363369 -0.250304 -0.189049 0.113299 -0.407414 -1.099108 -0.994145 0.080684 0.394540 1.260288 0.400179 0.589555 0.130744 0.105298 -0.000000 0.000001 0.000002 0.175089 0.029759 0.287941 0.370517 -0.208912 0.000783 -0.656104 -0.004598 0.587299 -0.000000 -0.000001 0.000002 0.011220 -1.070042 -0.243294 0.076044 0.287839 0.224684 -0.195668 0.074264 0.023789 0.000001 0.000000 -0.000002 -0.391666 0.352549 0.536939 0.417844 -0.523050 -0.561032 0.085688 0.382029 0.370209 -0.000002 0.000000 0.000001 -0.521816 0.101104 0.235681 -0.232414 0.086162 -0.182959 0.487039 -0.127225 0.349659 0.000001 0.000000 0.000001 
0.299525 86.016495 -2.850094 0.039185 -0.081269 -0.283227 0.177711 0.156217 -0.249051 -1.254313 -1.173637 0.078410 0.676070 1.082532 0.153564 0.125019 -0.169198 0.130357 0.000001 -0.000002 0.000001 -0.251537 0.278713 0.292110 0.396845 -0.726573 0.136943 -1.049617 -0.286788 0.806586 -0.000000 -0.000001 0.000000 -0.090543 -0.723209 -0.275865 -0.238883 0.226898 0.356121 -0.106346 -0.308375 0.185079 0.000001 0.000001 -0.000000 0.203412 0.207329 0.608839 -0.002337 -0.388393 -0.793202 -0.118173 0.443702 0.216156 -0.000001 0.000002 0.000000 -0.110711 -0.014034 0.276364 -0.586011 0.044089 -0.112298 0.277116 -0.252707 0.061112 0.000001 -0.000002 0.000001 
0.343327 86.014595 -2.899249 0.164699 -0.192285 -0.370389 -0.001193 0.153057 -0.303388 -0.843030 -0.768530 -0.001061 0.269348 0.906938 0.407832 0.156396 -0.344228 0.151284 0.000000 -0.000001 0.000001 -0.096873 -0.146328 0.334415 -0.004475 -0.617391 0.083597 -0.587145 -0.583187 0.932651 -0.000000 -0.000000 0.000001 -0.214406 -0.852620 -0.394424 -0.166183 -0.183901 0.591021 -0.372771 0.172183 0.436692 -0.000002 0.000002 -0.000003 0.062577 0.390229 0.878704 -0.443938 -0.247793 -1.049630 -0.222934 0.404625 0.087812 -0.000000 0.000002 0.000000 -0.686247 0.048103 0.294898 -0.238041 0.093580 -0.056051 -0.206419 0.379670 0.108808 0.000000 0.000001 0.000000 
0.376472 86.036644 -2.935991 -0.612193 0.453223 -0.651843 0.210661 0.068047 -0.005163 -0.299571 -0.559560 0.229373 0.057889 -0.042731 -0.026976 1.178860 0.114384 0.190311 -0.000001 0.000003 0.000000 -0.047618 -0.123227 0.558376 0.431686 -0.710837 0.127037 -1.355924 -0.284496 0.778188 0.000000 0.000001 0.000001 0.016684 -0.504010 -0.428364 0.242230 -0.157535 0.629684 -0.156849 0.189995 0.181957 -0.000000 0.000001 0.000002 1.110800 0.068364 0.995998 -0.294758 -0.212357 -0.917289 0.152394 0.247701 0.276862 0.000001 -0.000001 -0.000001 -0.548154 -0.026326 0.634765 -0.256329 -0.106372 0.350887 0.240517 -0.398818 -0.482743 0.000000 -0.000002 -0.000000 
0.409774 86.103996 -2.970075 -0.922523 0.555535 -1.015277 0.037176 -0.012115 -0.001896 -0.160343 -0.540588 0.352832 0.180881 0.057086 0.001801 1.165690 0.053040 0.361074 0.000000 0.000001 0.000001 -0.087863 0.367496 0.872943 0.734090 -0.397820 0.382744 -2.321468 0.355500 0.575275 -0.000000 -0.000000 -0.000001 0.396355 0.165247 -0.207750 0.255283 0.462705 -0.004127 0.827410 -0.821492 -0.105987 -0.000001 -0.000001 0.000000 2.106880 0.049939 1.744567 -1.155740 -0.044580 -1.436537 -0.444701 0.056986 -0.208861 -0.000001 0.000002 0.000001 -0.672277 -0.049361 1.048208 -0.248334 -0.234694 0.521416 0.196140 -0.455263 -0.705273 -0.000000 -0.000001 0.000001 
0.432558 86.200531 -3.007219 -1.494649 -0.262728 -1.248788 0.706732 0.312781 -0.421848 0.007881 -0.402495 0.376700 -0.185544 0.022722 0.328621 1.760539 0.460965 0.224427 -0.000001 0.000001 -0.000000 -0.305859 0.898561 0.780949 1.172461 -0.819791 0.733823 -2.829490 0.409294 0.652493 -0.000000 0.000000 0.000000 0.551172 0.899921 0.047554 0.583473 0.093282 0.032826 0.721259 -1.054936 -0.259405 0.000002 0.000002 0.000000 2.377109 0.574715 3.134951 -0.555209 -0.986100 -2.888974 -0.951997 1.278618 0.235165 -0.000002 0.000000 -0.000000 -1.033883 0.038162 1.194073 0.868393 0.148045 0.336148 -0.455052 0.377193 -0.497152 0.000001 0.000003 0.000002 
0.460573 86.365257 -3.034760 -1.286643 0.197685 -1.536878 0.502476 0.148248 -0.287595 -0.211066 -0.494101 0.478794 -0.174297 0.048102 0.273488 1.926537 0.565803 0.322559 -0.000000 -0.000002 0.000001 0.274772 0.234769 1.038130 1.268560 0.001960 0.513049 -2.023518 0.797272 0.314408 -0.000000 0.000001 -0.000001 0.852405 1.127774 -0.079140 0.740364 0.851114 0.019388 1.378248 -2.141475 -0.509375 0.000000 -0.000001 -0.000003 3.432530 0.281253 3.685498 -2.107746 -0.051360 -3.001400 -0.789040 0.428077 -0.028729 0.000001 0.000002 0.000000 -1.371469 0.208273 1.512398 -0.221275 -0.331271 0.748539 -1.010714 0.563867 -0.893573 0.000001 0.000001 0.000001 
0.491742 86.615952 -3.058468 -1.091940 -0.409594 -2.018697 0.263983 0.241579 -0.575625 -0.174986 -0.737217 0.688404 0.333381 -0.325178 0.250814 1.622786 0.901293 0.046754 -0.000001 0.000001 -0.000001 -0.796157 1.050065 1.554544 2.645326 -1.734480 0.079690 -0.443791 -0.135105 0.698916 -0.000000 0.000001 -0.000001 0.677284 1.213713 -0.311174 0.763526 0.615782 1.282061 0.405133 -0.954522 0.247404 0.000002 -0.000003 -0.000000 4.326700 0.565248 4.999066 -2.857184 -0.128792 -4.003096 -1.876802 0.893902 -0.398654 -0.000000 -0.000001 -0.000000 -2.538175 0.221193 2.320834 0.367330 0.152566 0.185968 -1.314731 0.741920 -0.772789 -0.000000 0.000001 -0.000000 
0.517835 86.904732 -3.062471 -1.998003 -0.383989 -2.459088 0.795780 0.379844 -0.532174 -0.286097 -0.931393 0.772828 0.587799 -0.631050 0.316662 2.567032 1.553050 -0.090074 0.000000 -0.000002 0.000000 -1.259825 0.945868 1.775871 2.837506 -2.500094 -0.292503 0.427404 -0.852298 0.656454 -0.000000 0.000001 -0.000001 0.550413 1.962104 -0.228981 0.801793 -0.076338 1.938917 0.047428 -0.573026 0.800880 0.000001 -0.000001 0.000000 6.099034 0.487654 5.946832 -3.866343 0.255925 -4.432049 -1.526930 0.652397 -0.333083 -0.000002 -0.000001 0.000001 -2.023616 -0.150083 3.408008 0.938248 0.710818 -0.878001 -1.404945 0.978649 -0.256904 -0.000001 -0.000001 -0.000002 
